<?xml version="1.0" standalone="no"?>
<!DOCTYPE svg PUBLIC "-//W3C//DTD SVG 20010904//EN"
 "http://www.w3.org/TR/2001/REC-SVG-20010904/DTD/svg10.dtd">
<svg version="1.0" xmlns="http://www.w3.org/2000/svg"
 width="250.000000pt" height="250.000000pt" viewBox="0 0 250.000000 250.000000"
 preserveAspectRatio="xMidYMid meet">
<metadata>
Created by potrace 1.14, written by Peter Selinger 2001-2017
</metadata>
<g transform="translate(0.000000,250.000000) scale(0.100000,-0.100000)"
fill="#000000" stroke="none">
<path d="M20 1255 l0 -1185 1235 0 1235 0 0 1185 0 1185 -1235 0 -1235 0 0
-1185z m2320 0 l0 -1035 -1085 0 -1085 0 0 1035 0 1035 1085 0 1085 0 0 -1035z"/>
<path d="M1158 1955 c-2 -1 -23 -5 -48 -8 -60 -7 -143 -28 -154 -38 -6 -5 -16
-9 -22 -9 -21 0 -99 -57 -139 -101 -20 -23 -49 -67 -63 -98 -23 -48 -27 -70
-27 -151 0 -83 4 -103 27 -153 64 -136 192 -205 533 -287 221 -53 248 -63 262
-103 34 -102 -52 -174 -215 -181 -68 -3 -145 10 -187 31 -44 23 -92 81 -107
130 -7 26 -18 43 -28 43 -23 0 -333 -49 -337 -54 -8 -8 39 -116 69 -157 91
-130 206 -199 382 -234 70 -14 296 -14 361 -1 114 23 222 71 280 124 47 43 93
105 116 158 30 69 35 203 10 272 -56 152 -163 215 -513 301 -277 68 -328 93
-328 156 0 47 24 73 88 91 56 17 179 22 235 11 57 -12 114 -55 139 -105 l24
-48 84 17 c47 9 120 22 163 29 52 10 77 18 77 28 0 34 -69 149 -118 198 -71
70 -133 98 -282 130 -26 5 -277 13 -282 9z"/>
</g>
</svg>
